<svg xmlns="http://www.w3.org/2000/svg" width="124.047" height="102.817" viewBox="0 0 124.047 102.817">
  <g id="Group_15388" data-name="Group 15388" transform="translate(-1629.419 -362.042)">
    <path id="Path_57202" data-name="Path 57202" d="M111.761,208.95l28,11.2a6.879,6.879,0,0,0,2.615.516,7.069,7.069,0,0,0,3.526-.964l24.888-10.2h0a7.277,7.277,0,0,0,4.438-8.2,7.085,7.085,0,0,0-3.268-4.541c-.344-19.832-7.327-34.71-17.923-39.56h.723a1.72,1.72,0,0,0,0-3.44h-.636a11.92,11.92,0,0,0,4.076-8.6,3.938,3.938,0,0,0-2.185-3.526,3.872,3.872,0,0,0-4.111.379l-.585.4a.86.86,0,0,1-1.1,0l-1-1.015a4.245,4.245,0,0,0-3.062-1.394,4.061,4.061,0,0,0-3.045,1.238L142.05,142.3a.86.86,0,0,1-1.1.086l-.585-.447a3.869,3.869,0,0,0-4.111-.378,3.936,3.936,0,0,0-2.133,3.595,11.919,11.919,0,0,0,4.076,8.6h-.636a1.72,1.72,0,1,0,0,3.44h.808c-6.88,3.165-12.315,10.561-15.376,21.122a9.6,9.6,0,0,0-2.219.12l-9.013,1.72v-2.322H98v32.68h13.76Zm25.8-63.795a.481.481,0,0,1,.275-.447.441.441,0,0,1,.224,0,.427.427,0,0,1,.292.1l.585.43h0a4.3,4.3,0,0,0,5.59-.379l1.066-1.066a.877.877,0,0,1,.567-.361.911.911,0,0,1,.585.258l1,1h0a4.3,4.3,0,0,0,5.624.43l.567-.43h0a.446.446,0,0,1,.515,0,.482.482,0,0,1,.31.465c0,4.765-5.16,8.6-8.6,8.6s-8.6-3.87-8.6-8.6Zm8.6,13.76c1.41,0,3.44,3.01,3.44,7.74h3.44a16.682,16.682,0,0,0-1.255-6.587c9.512,3.887,16.1,17.6,16.735,35.673a6.868,6.868,0,0,0-2.821.533l-6.175,2.081h0a4.608,4.608,0,0,0-2.838-4.3l-29.962-14.81a3.223,3.223,0,0,1-.378-.155c3.681-12.47,11.215-20.175,19.815-20.175Zm-24.734,22.91a5.986,5.986,0,0,1,3.784.5L155.225,197.2h0a1.257,1.257,0,0,1,.688.671,1.293,1.293,0,0,1,0,.98c-.447,1.118-2.391,2.03-5.16,2.356a17.039,17.039,0,0,1-7.534-.671l-15.48-4.85-1.015,3.285,15.325,4.8h0A18.267,18.267,0,0,0,148.4,204.8a16.3,16.3,0,0,0,7.964-1.72l10.32-3.526a3.716,3.716,0,0,1,3.113.12,3.6,3.6,0,0,1,2.167,2.391,3.869,3.869,0,0,1-2.408,4.266l-25.009,10.217-.275.12a3.613,3.613,0,0,1-3.216.293l-29.292-11.714V183.683Zm-13.106,25.25h-6.88v-25.8h6.88Z" transform="translate(1531.418 244.196)" fill="#cc3253"/>
    <path id="Path_57203" data-name="Path 57203" d="M470.775,113.581l.929-16.168L469.055,83.7l-5.916-28.156a6.881,6.881,0,1,0-13.554,2.39l3.99,22.533a6.607,6.607,0,0,1,0,2.012c-.361,2.941-.723,5.384-1.084,7.414v-1.2c-.361-4.919-5.16-14.053-10.715-13.64a4.676,4.676,0,0,0-3.216,1.616,4.543,4.543,0,0,0-1.135,3.3l-.275,33.316a9.6,9.6,0,0,0,1.893,5.71l5.521,7.327-2.1,1.032,6.037,12.366,29.36-14.4-6.037-12.366Zm-28.913,3.44a6.08,6.08,0,0,1-1.2-3.613l.172-33.488a1.286,1.286,0,0,1,.31-.928,1.324,1.324,0,0,1,.877-.447c2.684-.189,6.725,6.415,7.035,10.475l1.084,15.789,3.44-.241-.4-5.418c1.135-.946,2.322-4.265,3.818-16.236a9.946,9.946,0,0,0-.086-3.027l-3.938-22.566a3.438,3.438,0,0,1,.6-2.511,3.331,3.331,0,0,1,2.219-1.41,3.438,3.438,0,0,1,3.99,2.854l5.831,28.122,2.511,13.261-.963,17.683-19.454,9.511Zm8.274,18.128-3.027-6.175,23.185-11.335,3.01,6.175Z" transform="translate(1275.604 312.182)" fill="#cc3253"/>
    <path id="Path_57204" data-name="Path 57204" d="M287,56h3.44V66.32H287Z" transform="translate(1388.859 307.55)" fill="#cc3253"/>
    <path id="Path_57205" data-name="Path 57205" d="M334.7,76.255l4.2-9.481,3.144,1.395-4.2,9.481Z" transform="translate(1352.88 299.424)" fill="#cc3253"/>
    <path id="Path_57206" data-name="Path 57206" d="M223.47,68.121l3.144-1.395,4.2,9.481L227.674,77.6Z" transform="translate(1436.779 299.46)" fill="#cc3253"/>
    <path id="Path_57207" data-name="Path 57207" d="M371.16,104.776l7.334-7.334,2.432,2.432-7.334,7.334Z" transform="translate(1325.378 276.291)" fill="#cc3253"/>
    <path id="Path_57208" data-name="Path 57208" d="M177.02,99.864l2.432-2.432,7.334,7.334-2.432,2.432Z" transform="translate(1471.815 276.299)" fill="#cc3253"/>
  </g>
</svg>
