<svg xmlns="http://www.w3.org/2000/svg" width="108.496" height="108.496" viewBox="0 0 108.496 108.496">
  <g id="Group_15391" data-name="Group 15391" transform="translate(-471.579 -211)">
    <path id="Path_57213" data-name="Path 57213" d="M299.25,80.5h17.5a1.75,1.75,0,0,0,1.75-1.75v-14a1.75,1.75,0,0,0-1.75-1.75H315V59.5a7,7,0,1,0-14,0V63h-1.75a1.75,1.75,0,0,0-1.75,1.75v14a1.75,1.75,0,0,0,1.75,1.75Zm5.25-21a3.5,3.5,0,1,1,7,0V63h-7Zm-3.5,7h14V77H301Z" transform="translate(217.827 167.249)" fill="#cc3253"/>
    <path id="Path_57214" data-name="Path 57214" d="M252,57.748a24.525,24.525,0,1,0-17.316-7.183A24.5,24.5,0,0,0,252,57.748Zm0-45.5a21.021,21.021,0,1,1-14.842,6.157A21,21,0,0,1,252,12.25Z" transform="translate(273.828 202.25)" fill="#cc3253"/>
    <path id="Path_57215" data-name="Path 57215" d="M152.25,126h7v-3.5H150.5a1.75,1.75,0,0,0-1.75,1.75v31.5h3.5Z" transform="translate(336.828 111.249)" fill="#cc3253"/>
    <path id="Path_57216" data-name="Path 57216" d="M505.75,155.749h3.5v-31.5a1.75,1.75,0,0,0-1.75-1.75h-8.75V126h7Z" transform="translate(56.826 111.249)" fill="#cc3253"/>
    <path id="Path_57217" data-name="Path 57217" d="M135.62,434h1.75a.875.875,0,0,1,.875.875h3.5a4.376,4.376,0,0,0-3.5-4.286V428.75h-3.5v1.839a4.375,4.375,0,0,0,.875,8.661h1.75a.875.875,0,0,1,0,1.75h-1.75a.875.875,0,0,1-.875-.875h-3.5a4.376,4.376,0,0,0,3.5,4.286v1.839h3.5V444.41a4.375,4.375,0,0,0-.875-8.661h-1.75a.875.875,0,1,1,0-1.75Z" transform="translate(350.833 -133.753)" fill="#cc3253"/>
    <path id="Path_57218" data-name="Path 57218" d="M507.205,450.222l-2.475-2.474-2.481,2.474,3.712,3.713h0a1.75,1.75,0,0,0,2.474,0l9.914-9.9-2.474-2.474Z" transform="translate(54.026 -144.002)" fill="#cc3253"/>
    <path id="Path_57219" data-name="Path 57219" d="M80.5,362.082h28a1.75,1.75,0,0,0,1.75-1.75v-22a7.759,7.759,0,0,0-7.75-7.75H99.7a8.75,8.75,0,1,0-10.391,0h-2.8a7.759,7.759,0,0,0-7.757,7.75v22a1.75,1.75,0,0,0,1.75,1.75Zm8.75-38.5a5.249,5.249,0,1,1,1.537,3.712A5.25,5.25,0,0,1,89.25,323.583Zm-7,14.75a4.257,4.257,0,0,1,4.251-4.251h16a4.257,4.257,0,0,1,4.251,4.251v20.249H82.25Z" transform="translate(392.829 -42.586)" fill="#cc3253"/>
    <path id="Path_57220" data-name="Path 57220" d="M487.5,330.586h-2.8a8.75,8.75,0,1,0-10.391,0h-2.8a7.759,7.759,0,0,0-7.757,7.75v22a1.75,1.75,0,0,0,1.75,1.75h28a1.75,1.75,0,0,0,1.75-1.75v-22a7.759,7.759,0,0,0-7.75-7.75Zm-13.249-7a5.249,5.249,0,1,1,1.537,3.712A5.251,5.251,0,0,1,474.254,323.586Zm17.5,35h-24.5V338.336a4.257,4.257,0,0,1,4.251-4.251h16a4.257,4.257,0,0,1,4.251,4.251Z" transform="translate(84.823 -42.589)" fill="#cc3253"/>
  </g>
</svg>
