<svg xmlns="http://www.w3.org/2000/svg" width="122.254" height="77.075" viewBox="0 0 122.254 77.075">
  <path id="Path_8" data-name="Path 8" d="M201.262,109.276H165.993L150.91,98.832l-.133-.093a27.773,27.773,0,0,0-14.392-4.079H101.225a2.659,2.659,0,0,0-2.286-1.329H84.321a2.658,2.658,0,0,0-2.657,2.658V142.5a2.655,2.655,0,0,0,2.657,2.657H98.939A2.657,2.657,0,0,0,101.6,142.5v-7.442a30,30,0,0,0,10.63,3.322v29.368a2.658,2.658,0,0,0,2.658,2.658h86.376a2.657,2.657,0,0,0,2.657-2.658V111.935a2.657,2.657,0,0,0-2.657-2.658ZM96.281,139.84h-9.3V98.647h9.3ZM101.6,99.975h34.79a22.42,22.42,0,0,1,11.561,3.269l8.717,6.032H139.8a45.312,45.312,0,0,0-14.285-2.657,2.658,2.658,0,1,0,0,5.315,40.178,40.178,0,0,1,13.288,2.658h.2c5.422,1.98,9.581,4.518,10.471,5.568a4.794,4.794,0,0,1,.425,3.866,3.623,3.623,0,0,1-1.794,1.648c-11.814-1.422-14.046-.531-20.4,2.884-1.648.891-3.508,1.887-6.033,3.083-8.438,3.987-17.182-.851-20.092-2.75ZM198.6,165.088H117.545V138.339a21.77,21.77,0,0,0,6.431-1.887c2.658-1.329,4.651-2.339,6.259-3.2,5.528-2.976,6.645-3.6,17.886-2.233a2.419,2.419,0,0,0,1.023,0,9.3,9.3,0,0,0,5.608-4.7,9.835,9.835,0,0,0-.359-8.292,3.486,3.486,0,0,0-.213-.438,11.4,11.4,0,0,0-3.322-2.99H198.6Z" transform="translate(-81.664 -93.33)" fill="#cc3253"/>
</svg>
