<svg xmlns="http://www.w3.org/2000/svg" width="114.172" height="127.365" viewBox="0 0 114.172 127.365">
  <g id="Group_15390" data-name="Group 15390" transform="translate(-1631.854 -827.742)">
    <path id="Path_57211" data-name="Path 57211" d="M214.211,92a12.412,12.412,0,0,0-9.021,3.9l-10.1-5.789a28.714,28.714,0,0,0,2.423-11.175,28.217,28.217,0,0,0-2.423-11.175l10.1-5.789a12.412,12.412,0,0,0,9.021,3.9A12.521,12.521,0,1,0,201.691,53.36a14.671,14.671,0,0,0,.538,3.5l-10.1,5.789a27.222,27.222,0,0,0-19.388-11.175V39.762a12.521,12.521,0,1,0-5.922,0V51.475A27.765,27.765,0,0,0,147.3,62.65l-10.1-5.789a14.624,14.624,0,0,0,.538-3.5,12.521,12.521,0,1,0-12.521,12.521,12.412,12.412,0,0,0,9.021-3.9l10.1,5.789a24.668,24.668,0,0,0-2.56,11.041A27.71,27.71,0,0,0,144.2,89.982l-10.1,5.789a12.412,12.412,0,0,0-9.021-3.9A12.521,12.521,0,1,0,137.6,104.387a14.672,14.672,0,0,0-.538-3.5l10.1-5.924a27.5,27.5,0,0,0,19.522,11.175v11.713a12.42,12.42,0,0,0-9.56,12.117,12.521,12.521,0,0,0,25.042,0,12.418,12.418,0,0,0-9.56-12.117V106.138a27.224,27.224,0,0,0,19.388-11.175l10.1,5.924a14.624,14.624,0,0,0-.538,3.5,12.521,12.521,0,1,0,25.042,0A12.348,12.348,0,0,0,214.211,92Zm0-45.507a6.6,6.6,0,1,1-6.6,6.6A6.608,6.608,0,0,1,214.211,46.493Zm-89.13,13.194a6.6,6.6,0,1,1,6.6-6.6A6.608,6.608,0,0,1,125.082,59.688Zm0,51.431a6.6,6.6,0,1,1,6.6-6.6A6.608,6.608,0,0,1,125.082,111.119Zm37.968-83.744a6.6,6.6,0,1,1,6.6,6.6A6.608,6.608,0,0,1,163.049,27.375Zm13.2,102.863a6.6,6.6,0,1,1-6.6-6.6A6.608,6.608,0,0,1,176.244,130.237Zm-6.6-29.486a21.946,21.946,0,1,1,21.946-21.946A21.95,21.95,0,0,1,169.647,100.752Zm44.565,10.366a6.6,6.6,0,1,1,6.6-6.6A6.608,6.608,0,0,1,214.212,111.118Z" transform="translate(1519.294 812.618)" fill="#cc3253"/>
    <path id="Path_57212" data-name="Path 57212" d="M315.626,242.459,304.181,253.9l-5.52-5.52a2.951,2.951,0,1,0-4.174,4.174l7.675,7.675a3.059,3.059,0,0,0,2.154.808,3.3,3.3,0,0,0,2.154-.808l13.464-13.464a2.85,2.85,0,0,0,0-4.174,2.9,2.9,0,0,0-4.309-.135Z" transform="translate(1381.797 640.618)" fill="#cc3253"/>
  </g>
</svg>
