<svg xmlns="http://www.w3.org/2000/svg" width="103.254" height="102.268" viewBox="0 0 103.254 102.268">
  <g id="Group_15271" data-name="Group 15271" transform="translate(-719.41 -4078)">
    <path id="Path_57181" data-name="Path 57181" d="M341.25,113.75H344.7V117.2H341.25Z" transform="translate(428.159 3983.02)" fill="#cc3253"/>
    <path id="Path_57182" data-name="Path 57182" d="M259.3,133.374l2.986-1.724,1.724,2.987-2.986,1.724Z" transform="translate(493.96 3968.647)" fill="#cc3253"/>
    <path id="Path_57183" data-name="Path 57183" d="M474.45,349.784l1.724-2.986,2.987,1.724-1.724,2.986Z" transform="translate(321.208 3795.896)" fill="#cc3253"/>
    <path id="Path_57184" data-name="Path 57184" d="M498.75,271.25H502.2V274.7H498.75Z" transform="translate(301.696 3856.556)" fill="#cc3253"/>
    <path id="Path_57185" data-name="Path 57185" d="M474.45,191.014l2.987-1.724,1.724,2.986L476.174,194Z" transform="translate(321.208 3922.365)" fill="#cc3253"/>
    <path id="Path_57186" data-name="Path 57186" d="M416.8,134.631l1.724-2.987,2.987,1.724-1.724,2.987Z" transform="translate(367.497 3968.652)" fill="#cc3253"/>
    <path id="Path_57187" data-name="Path 57187" d="M101.305,345.589l-2.978,1.738a92.469,92.469,0,0,0,14.38,18.827A94.472,94.472,0,0,0,136.793,383.4l1.563-3.074a91.055,91.055,0,0,1-23.214-16.613h0A89.018,89.018,0,0,1,101.3,345.589Z" transform="translate(623.212 3796.866)" fill="#cc3253"/>
    <path id="Path_57188" data-name="Path 57188" d="M156.105,196.765l-10.512-2.337a6.5,6.5,0,0,0-7.912,6.347v1.556a3.3,3.3,0,0,1-3.975-.214c-3.581-3-10.121-8.566-13.686-12.132s-9.132-10.105-12.131-13.686h0a3.3,3.3,0,0,1-.214-3.975h1.556a6.5,6.5,0,0,0,6.347-7.911L113.242,153.9a9.96,9.96,0,0,0-17.828-3.629l-6.145,8.6h0a9.393,9.393,0,0,0-1.212,8.6c2.626,7.4,8.83,21.611,20.849,33.628s26.228,18.221,33.628,20.849h0a9.389,9.389,0,0,0,8.6-1.212l8.6-6.145h0a9.96,9.96,0,0,0-3.628-17.828Zm1.624,15.022-8.6,6.145h0a5.943,5.943,0,0,1-5.438.768c-7.126-2.53-20.805-8.5-32.343-20.037s-17.507-25.218-20.037-32.343a5.943,5.943,0,0,1,.768-5.438l6.145-8.6a6.512,6.512,0,0,1,11.655,2.372l2.336,10.512a3.053,3.053,0,0,1-2.981,3.715h-2.36a1.725,1.725,0,0,0-1.219.5,6.733,6.733,0,0,0-.407,9.133c3.709,4.427,8.861,10.434,12.336,13.91s9.483,8.627,13.91,12.336h0a6.734,6.734,0,0,0,9.134-.407,1.725,1.725,0,0,0,.5-1.219v-2.359a3.053,3.053,0,0,1,3.715-2.981l10.512,2.336a6.511,6.511,0,0,1,2.372,11.655Z" transform="translate(631.891 3957.044)" fill="#cc3253"/>
    <path id="Path_57189" data-name="Path 57189" d="M316.736,153.922v16.137a6.894,6.894,0,0,0,6.53,11.317l13.988,8.069a5.26,5.26,0,0,0,2.57.687,5.168,5.168,0,0,0,2.586-9.649l-13.965-8.065a6.9,6.9,0,0,0-1.364-2.359V153.921a5.173,5.173,0,0,0-10.346,0Zm1.724,20.691a3.453,3.453,0,1,1,1.012,2.437,3.449,3.449,0,0,1-1.012-2.437Zm23.034,9.9a1.7,1.7,0,0,1-.181,1.307,1.729,1.729,0,0,1-1.49.862,1.765,1.765,0,0,1-.862-.235l-12.139-7a6.9,6.9,0,0,0,1.729-2.985l12.139,7.01a1.7,1.7,0,0,1,.8,1.041ZM321.908,152.2a1.649,1.649,0,0,1,1.2.5l.033.033a1.65,1.65,0,0,1,.5,1.2v14.013a6.921,6.921,0,0,0-3.449,0V153.921A1.725,1.725,0,0,1,321.908,152.2Z" transform="translate(449.225 3954.918)" fill="#cc3253"/>
    <path id="Path_57190" data-name="Path 57190" d="M268.79,134.379a39.659,39.659,0,0,0-65.152-43.191l2.507,2.369A35.881,35.881,0,0,1,232.48,82.2a36.251,36.251,0,0,1,36.209,36.209,35.881,35.881,0,0,1-11.359,26.335l2.368,2.508h0a39.514,39.514,0,0,0,9.091-12.87Z" transform="translate(538.654 4011.124)" fill="#cc3253"/>
    <path id="Path_57191" data-name="Path 57191" d="M206.468,43.747a46.551,46.551,0,0,0-35.226,16.114l2.608,2.255h0a43.114,43.114,0,1,1,59.145,62.166L235.119,127h0a46.557,46.557,0,0,0-28.65-83.253Z" transform="translate(564.666 4039.229)" fill="#cc3253"/>
    <path id="Path_57192" data-name="Path 57192" d="M592.562,189.59l-3.251,1.148c.386,1.094.739,2.215,1.048,3.333l3.325-.918c-.33-1.2-.707-2.395-1.121-3.564Z" transform="translate(228.982 3922.125)" fill="#cc3253"/>
    <path id="Path_57193" data-name="Path 57193" d="M450.179,50.029l3.16-1.379A53.582,53.582,0,0,0,418.588,18.5l-.918,3.325a50.133,50.133,0,0,1,32.508,28.2Z" transform="translate(366.798 4059.5)" fill="#cc3253"/>
  </g>
</svg>
