<svg xmlns="http://www.w3.org/2000/svg" width="134.664" height="116.1" viewBox="0 0 134.664 116.1">
  <g id="Group_15391" data-name="Group 15391" transform="translate(-533.161 -332.826)">
    <path id="Path_57215" data-name="Path 57215" d="M208.892,137.833,185.68,114.621l30.255-30.227-3.1-3.1-41.024,41,2.192,2.192-1.178,1.178a10.973,10.973,0,0,1-7.755,3.206h-4.44a15.325,15.325,0,0,0-10.852,4.494l-1.178,1.178-1.178-1.178a15.326,15.326,0,0,0-10.852-4.494h-4.44a10.973,10.973,0,0,1-7.755-3.206l-1.178-1.178,2.192-2.192-41-41.024-3.124,3.124,30.255,30.227L88.314,137.833l-3.919-3.919-3.1,3.1L95.987,151.7l2.192-2.192,2.713,2.713a5.655,5.655,0,0,1,1.672,4.056,10.123,10.123,0,0,0,2.96,7.153l11.647,11.647a6.7,6.7,0,0,0,4.577,2,6.861,6.861,0,0,0,6.577,6.577,6.861,6.861,0,0,0,6.577,6.577,6.835,6.835,0,0,0,7.1,6.577,6.7,6.7,0,0,0,4.577-2l1.726-1.726,2.275,2.275a6.842,6.842,0,0,0,11.674-4.577,6.821,6.821,0,0,0,6.577-6.577,6.821,6.821,0,0,0,6.577-6.577,6.793,6.793,0,0,0,5.892-3.837l10.359-10.359a9.9,9.9,0,0,0,2.96-7.153,5.722,5.722,0,0,1,1.672-4.056L199,149.507l2.192,2.192,14.716-14.716-3.1-3.1ZM95.986,145.506l-4.577-4.577,23.212-23.212,4.577,4.577Zm26.035,27.213a2.456,2.456,0,0,1-2.466-2.466,2.357,2.357,0,0,1,.713-1.726l6.577-6.577a2.461,2.461,0,0,1,3.48,3.48l-6.577,6.577a2.357,2.357,0,0,1-1.726.713ZM128.6,179.3a2.456,2.456,0,0,1-2.466-2.466,2.357,2.357,0,0,1,.713-1.726l6.577-6.577a2.461,2.461,0,1,1,3.48,3.48l-6.577,6.577a2.357,2.357,0,0,1-1.727.713Zm6.577,6.577a2.456,2.456,0,0,1-2.466-2.466,2.357,2.357,0,0,1,.713-1.726L140,175.1a2.461,2.461,0,1,1,3.48,3.48l-6.577,6.577a2.357,2.357,0,0,1-1.726.713Zm14.908-.713-6.577,6.577a2.461,2.461,0,1,1-3.48-3.48l6.577-6.577a2.461,2.461,0,1,1,3.48,3.48Zm7.1,7.1a2.465,2.465,0,0,1-3.48,0l-2.275-2.275,1.726-1.726a7.091,7.091,0,0,0,1.425-2.055l2.6,2.6a2.407,2.407,0,0,1,0,3.453h0Zm19.731-19.731a2.465,2.465,0,0,1-3.48,0l-3.563-3.563-3.1,3.1,3.563,3.563a2.461,2.461,0,1,1-3.48,3.48l-3.563-3.563-3.1,3.1,3.563,3.563a2.461,2.461,0,1,1-3.48,3.48l-3.563-3.563-1.535,1.562v-.274a6.829,6.829,0,0,0-6.577-6.824,6.861,6.861,0,0,0-6.577-6.577,6.861,6.861,0,0,0-6.577-6.577,6.835,6.835,0,0,0-7.1-6.577,6.7,6.7,0,0,0-4.577,2L117.2,165.43a7.091,7.091,0,0,0-1.425,2.055l-7.153-7.153a5.655,5.655,0,0,1-1.672-4.056,10.123,10.123,0,0,0-2.96-7.153l-2.713-2.713L120.1,127.584l1.178,1.178a15.326,15.326,0,0,0,10.852,4.494h4.44a10.973,10.973,0,0,1,7.755,3.206l1.178,1.178-7.208,7.208a8.391,8.391,0,0,0,11.866,11.866l5.673-5.673a2.2,2.2,0,0,1,3.1,0l18,18a2.49,2.49,0,0,1-.027,3.48Zm16.306-23.4a9.9,9.9,0,0,0-2.96,7.153,5.722,5.722,0,0,1-1.672,4.056l-7.317,7.317a6.919,6.919,0,0,0-1.233-1.7l-18-17.977a6.55,6.55,0,0,0-9.29,0l-5.673,5.673a4.011,4.011,0,0,1-5.673-5.673l11.483-11.482a10.973,10.973,0,0,1,7.755-3.206h4.44a15.325,15.325,0,0,0,10.852-4.494l1.178-1.178,18.827,18.827Zm8-3.618-23.212-23.212,4.577-4.577L205.8,140.93Z" transform="translate(451.891 251.556)" fill="#cc3253"/>
  </g>
</svg>
