<svg xmlns="http://www.w3.org/2000/svg" width="149.458" height="140.342" viewBox="0 0 149.458 140.342">
  <g id="Group_15391" data-name="Group 15391" transform="translate(-580.751 -241)">
    <path id="Path_57213" data-name="Path 57213" d="M303.4,242.154v5.926a1.757,1.757,0,1,0,3.513,0v-5.926h4.15a4.821,4.821,0,0,0,4.77-4.857V233.08h5.82a1.787,1.787,0,0,0,0-3.574h-5.82v-4.033h5.82a1.787,1.787,0,0,0,0-3.574h-5.82v-4.031h5.82a1.787,1.787,0,0,0,0-3.574h-5.82v-4a4.821,4.821,0,0,0-4.77-4.857h-4.15v-5.926a1.757,1.757,0,1,0-3.513,0l0,5.926h-3.96v-5.926a1.757,1.757,0,1,0-3.513,0v5.926h-3.958v-5.926a1.757,1.757,0,1,0-3.513,0v5.926h-4.148a4.82,4.82,0,0,0-4.771,4.857v4.981h-5.82a1.787,1.787,0,0,0,0,3.574h5.82v4.029h-5.82a1.787,1.787,0,0,0,0,3.574h5.82v4.033h-5.82a1.787,1.787,0,0,0,0,3.574h5.82v3.236a4.821,4.821,0,0,0,4.771,4.857h4.148v5.926a1.757,1.757,0,1,0,3.513,0v-5.923h3.958v5.926a1.757,1.757,0,1,0,3.513,0v-5.926ZM283.054,237.3V210.29a1.273,1.273,0,0,1,1.259-1.283h26.752a1.271,1.271,0,0,1,1.257,1.283V237.3a1.272,1.272,0,0,1-1.257,1.283H284.313A1.271,1.271,0,0,1,283.054,237.3Z" transform="translate(357.293 87.57)" fill="#cc3253"/>
    <path id="Path_57214" data-name="Path 57214" d="M339.98,265.425V244.992a1.771,1.771,0,0,0-1.757-1.787h-20.07a1.772,1.772,0,0,0-1.757,1.787v20.433a1.771,1.771,0,0,0,1.757,1.787h20.071a1.771,1.771,0,0,0,1.755-1.787Zm-3.512-1.79H319.91V246.778h16.558Z" transform="translate(326.795 56.349)" fill="#cc3253"/>
    <path id="Path_57215" data-name="Path 57215" d="M428.963,153.7l-.016-22.043a1.771,1.771,0,0,0-1.757-1.786h-9.9a16.752,16.752,0,0,0,.256-2.9c0-.082-.009-.165-.011-.247,0-.017.011-.033.011-.053a15.528,15.528,0,0,0-9.27-14.382,14.33,14.33,0,0,0-2.733-.915,16.257,16.257,0,0,0,3.876-10.649,16.723,16.723,0,0,0-.3-3.136h11.113a1.772,1.772,0,0,0,1.757-1.787l0-24.14a6.874,6.874,0,1,0-3.513-.011v22.36H408a15.463,15.463,0,0,0-9.466-8.581l-.021-13.5a6.874,6.874,0,1,0-6.613-1.813,6.756,6.756,0,0,0,3.1,1.8l.021,12.9c-.252-.012-.5-.04-.757-.04a14.163,14.163,0,0,0-2.743.279c-.535-8.043-6.913-14.422-14.691-14.422-.042,0-.081.023-.121.024-.169,0-.332-.024-.5-.024-8.079,0-15.163,7.939-15.163,16.991v9.859a1.757,1.757,0,1,0,3.513,0V87.622c0-7.148,5.444-13.415,11.651-13.415,6.424,0,11.652,5.549,11.652,12.37,0,.2-.016.393-.028.587l-.013.186a1.781,1.781,0,0,0,.093.659A11.472,11.472,0,0,1,376.83,98.066a1.788,1.788,0,0,0,0,3.574c7.265,0,13.3-5.558,14.512-12.839a10.877,10.877,0,0,1,2.924-.454c6.422,0,11.648,5.552,11.648,12.372a12.424,12.424,0,0,1-5.727,10.633c-.037.023-.06.06-.094.086a15.331,15.331,0,0,0-12.032,15.228,1.757,1.757,0,1,0,3.513,0c0-6.577,5.038-11.928,11.232-11.928a10.568,10.568,0,0,1,4.183.867,12.432,12.432,0,0,1,7.049,11.362c0,6.819-5.226,12.368-11.651,12.368-.311,0-.616-.023-.919-.049a1.746,1.746,0,0,0-1.814,1.2,1.808,1.808,0,0,0,.712,2.081,12.439,12.439,0,0,1,5.525,10.193,1.717,1.717,0,0,0-.085.429c0,6.58-5.039,11.931-11.234,11.931s-11.23-5.353-11.23-11.931a1.757,1.757,0,1,0-3.513,0,15.654,15.654,0,0,0,7.526,13.508c.086.292.165.541.235.753a3.952,3.952,0,0,1,.263,1.637c0,6.821-5.228,12.372-11.652,12.372s-11.651-5.552-11.651-12.372a1.519,1.519,0,0,0-.051-.26,1.65,1.65,0,0,0,.051-.26v-9.413a1.757,1.757,0,1,0-3.513,0v9.413a1.522,1.522,0,0,0,.051.26,1.653,1.653,0,0,0-.051.26,15.806,15.806,0,0,0,11.968,15.585v5.837a1.771,1.771,0,0,0,1.754,1.787l27.083.017a6.9,6.9,0,0,0,6.615,5.192h.023a7,7,0,1,0-6.647-8.765l-25.316-.017v-3.705c8.213-.181,14.844-7.249,14.844-15.93,0-.119,0-.234,0-.343a14.473,14.473,0,0,0,2.9.29c8.359,0,15.16-7.152,15.16-15.944a16.3,16.3,0,0,0-3.8-10.55,15.417,15.417,0,0,0,10.606-9.1h9.2l.013,20.238a6.994,6.994,0,0,0,1.71,13.734h.027a6.989,6.989,0,0,0,1.784-13.715ZM416.9,64.911a3.36,3.36,0,1,1,3.36,3.431v.68h-.007l0-.677a3.4,3.4,0,0,1-3.348-3.432Zm-23.479.266a3.359,3.359,0,1,1,3.355,3.431v0h-.012a3.3,3.3,0,0,1-2.37-1.009,3.431,3.431,0,0,1-.973-2.423Zm15.043,121.916a3.421,3.421,0,0,1,.013,6.84l-.011,1.787v-1.787a3.421,3.421,0,0,1,0-6.84Zm18.728-23.248v1.787l-.012-1.787a3.369,3.369,0,1,1,.012,0Z" transform="translate(296.153 183.526)" fill="#cc3253"/>
    <path id="Path_57216" data-name="Path 57216" d="M189.126,156.336a1.772,1.772,0,0,0-1.757,1.787v9.413a1.547,1.547,0,0,0,.051.26,1.707,1.707,0,0,0-.051.26c0,6.821-5.226,12.372-11.651,12.372s-11.652-5.552-11.652-12.372a3.962,3.962,0,0,1,.263-1.637c.07-.212.149-.462.235-.753a15.653,15.653,0,0,0,7.526-13.508,1.757,1.757,0,1,0-3.513,0c0,6.58-5.037,11.931-11.23,11.931s-11.234-5.353-11.234-11.931a1.74,1.74,0,0,0-.085-.429,12.453,12.453,0,0,1,5.525-10.193,1.8,1.8,0,0,0,.712-2.081,1.751,1.751,0,0,0-1.814-1.2c-.3.027-.609.049-.919.049-6.424,0-11.651-5.549-11.651-12.368a12.427,12.427,0,0,1,7.049-11.362,10.6,10.6,0,0,1,4.183-.867c6.193,0,11.232,5.351,11.232,11.928a1.757,1.757,0,1,0,3.513,0A15.334,15.334,0,0,0,151.827,110.4c-.036-.024-.058-.061-.094-.085a12.427,12.427,0,0,1-5.727-10.633c0-6.821,5.226-12.372,11.648-12.372a10.926,10.926,0,0,1,2.924.454c1.208,7.281,7.247,12.839,14.512,12.839a1.788,1.788,0,0,0,0-3.574,11.471,11.471,0,0,1-11.081-10.057,1.777,1.777,0,0,0,.093-.659l-.013-.186c-.012-.194-.028-.388-.028-.587,0-6.821,5.228-12.37,11.652-12.37,6.206,0,11.651,6.268,11.651,13.415v9.859a1.757,1.757,0,1,0,3.513,0V86.587c0-7.833-5.305-14.82-11.968-16.565v-6.54a1.771,1.771,0,0,0-1.754-1.787l-20.06-.017a6.877,6.877,0,1,0-6.607,8.8h.027a6.891,6.891,0,0,0,6.594-5.226l18.291.016v4.345c-.06,0-.119.007-.183.009-.042,0-.08-.025-.121-.025-7.781,0-14.158,6.379-14.691,14.422a14,14,0,0,0-2.743-.279c-8.359,0-15.16,7.154-15.16,15.948,0,.365.025.729.048,1.089H128.473V80.881a6.874,6.874,0,1,0-3.512.009v21.672a1.771,1.771,0,0,0,1.757,1.787h16.446a15.931,15.931,0,0,0,3.212,5.985,14.394,14.394,0,0,0-2.726.911,15.528,15.528,0,0,0-9.275,14.386c0,.02.011.036.011.053,0,.082-.011.165-.011.247,0,.551.036,1.1.088,1.635h-3.63a6.881,6.881,0,1,0-6.7,8.57h.029a6.879,6.879,0,0,0,6.546-4.993h4.508A15.5,15.5,0,0,0,146.3,141.512a16.292,16.292,0,0,0-3.8,10.55c0,8.792,6.8,15.944,15.16,15.944a14.462,14.462,0,0,0,2.9-.29c0,.109,0,.222,0,.343,0,.374.029.741.053,1.109l-11.216-.007c-.023,0-.04-.012-.064-.012s-.04.012-.064.012l-17.635-.012a6.878,6.878,0,1,0-6.6,8.805h.027a6.888,6.888,0,0,0,6.59-5.229l15.932.011v10.3a7,7,0,0,0,1.524,13.794h.021A7.024,7.024,0,0,0,154,184.906a6.776,6.776,0,0,0-2.913-1.744V172.736l10.14.007a15.3,15.3,0,0,0,14.494,11.262c8.36,0,15.163-7.154,15.163-15.948a1.546,1.546,0,0,0-.051-.26,1.709,1.709,0,0,0,.051-.26v-9.413a1.775,1.775,0,0,0-1.757-1.79ZM150.5,66.9l-.012,1.787V66.9a3.357,3.357,0,1,1,.012,0Zm-27.16,7.262a3.36,3.36,0,1,1,3.372,3.405H126.7v0a3.394,3.394,0,0,1-3.36-3.4Zm.818,58.394v1.787l-.016-1.787a3.362,3.362,0,1,1,.016,0Zm28.319,57.281a3.4,3.4,0,0,1-3.359,3.409v1.787l-.009-1.787a3.421,3.421,0,0,1,.026-6.84,3.305,3.305,0,0,1,2.37,1.009,3.43,3.43,0,0,1,.971,2.422Zm-27.441-15.468-.012,1.787v-1.787a3.275,3.275,0,1,1,.012,0Z" transform="translate(463.469 184.514)" fill="#cc3253"/>
  </g>
</svg>
