<svg xmlns="http://www.w3.org/2000/svg" width="110.087" height="116.1" viewBox="0 0 110.087 116.1">
  <g id="Group_15389" data-name="Group 15389" transform="translate(-1552.388 -510.824)">
    <path id="Path_57209" data-name="Path 57209" d="M227.872,61.242A30.534,30.534,0,1,0,206.264,52.3a30.534,30.534,0,0,0,21.608,8.944ZM209.729,50.7a20.446,20.446,0,0,1,9.4-12.065,4.684,4.684,0,0,0,2.3-3.139,5.63,5.63,0,0,0-.907-4.409,11.063,11.063,0,0,1-2.032-6.476,10.883,10.883,0,0,1,4.227-8.8,8.564,8.564,0,0,1,7.8-1.306,9.7,9.7,0,0,1,6.368,7.257,11.445,11.445,0,0,1-1.814,9.416,5.3,5.3,0,0,0-.852,4.246,4.9,4.9,0,0,0,2.359,3.266,20.541,20.541,0,0,1,9.343,12.029,26.923,26.923,0,0,1-36.285,0Zm-.98-39.134a27.033,27.033,0,0,1,39.914,36.285A23.583,23.583,0,0,0,238.3,35.606a1.45,1.45,0,0,1-.654-.961,1.815,1.815,0,0,1,.272-1.415,15.039,15.039,0,0,0,2.322-12.283,13.264,13.264,0,0,0-8.763-9.816A12.1,12.1,0,0,0,220.6,12.945a14.388,14.388,0,0,0-5.642,11.611,14.407,14.407,0,0,0,2.7,8.527,2.067,2.067,0,0,1,.309,1.6,1.164,1.164,0,0,1-.562.816,23.874,23.874,0,0,0-10.451,12.3,27.051,27.051,0,0,1,1.814-36.285Z" transform="translate(1378.417 510.651)" fill="#cc3253"/>
    <path id="Path_57210" data-name="Path 57210" d="M193.849,304.475a6.458,6.458,0,0,0-8-2.812L181.2,300.1h0a18.758,18.758,0,0,0-8.836-.707,1.8,1.8,0,0,0-.436-.2l-4.844-1.161h0a22.608,22.608,0,0,0-16.328,2.213l-14.26,7.892-7.257-2.05h0a30.458,30.458,0,0,0-26.451,5.062l-17.4,13.19a1.815,1.815,0,0,0-.689,1.4V350.03a1.814,1.814,0,0,0,1.814,1.814,1.841,1.841,0,0,0,.581,0l21.046-6.931,25.744,2.866a22.513,22.513,0,0,0,14.895-3.629l43.107-30.843a6.567,6.567,0,0,0,1.96-8.835ZM180.1,303.441l1.4.471L154.28,318.535h0a7.136,7.136,0,0,0-.889-3.357,7.357,7.357,0,0,0-1.434-1.814l15.929-8.8a15.254,15.254,0,0,1,12.21-1.125Zm-27.6-.109h0a19.163,19.163,0,0,1,13.806-1.814l-17.961,9.942-6.894-1.923Zm37.3,6.966-43.107,30.843a19.082,19.082,0,0,1-12.428,3.048l-26.107-2.9a1.464,1.464,0,0,0-.744,0l-19.195,6.369V326.609l16.673-12.7h0a26.868,26.868,0,0,1,23.349-4.464l8.037,2.25,11.7,3.266A3.846,3.846,0,0,1,150.051,321a.943.943,0,0,0-.181.2,3.773,3.773,0,0,1-3.991,1.179c-7.257-2.25-17.2-4.59-22.534-2.921l-7.638,2.359a1.759,1.759,0,0,0,1.052,3.356l7.638-2.359c3.429-1.071,10.886,0,20.447,2.921a7.256,7.256,0,0,0,7.566-2.213L186.7,305.074a2.993,2.993,0,0,1,4.046,1.161,3.047,3.047,0,0,1-.944,4.064Z" transform="translate(1467.685 275.057)" fill="#cc3253"/>
  </g>
</svg>
