<svg xmlns="http://www.w3.org/2000/svg" width="113.647" height="113.601" viewBox="0 0 113.647 113.601">
  <g id="Group_15391" data-name="Group 15391" transform="translate(-525.563 -187)">
    <path id="Path_57213" data-name="Path 57213" d="M113.011,265.179h-2.13v-3.55a15.777,15.777,0,0,0-5.325-11.715v-12.6a6.03,6.03,0,0,0-5.858-5.858l6.39-14.2a5.723,5.723,0,0,0-3.018-7.1,5.965,5.965,0,0,0-7.455,2.308L80,240.33a10.339,10.339,0,0,0-.177,10.828l7.455,14.023h-1.42a1.677,1.677,0,0,0-1.775,1.775V279.38a1.677,1.677,0,0,0,1.775,1.775H113.19a1.677,1.677,0,0,0,1.775-1.775V266.955a2.086,2.086,0,0,0-1.953-1.775Zm-30-15.975a6.143,6.143,0,0,1,.177-7.1l15.442-27.867a2.707,2.707,0,0,1,3.018-.887,2.059,2.059,0,0,1,1.242,2.485l-8.343,18.283a4.621,4.621,0,0,0-.709,2.662V250.8a1.775,1.775,0,1,0,3.55,0V236.78c0-1.065.887-1.775,2.13-1.775a2.559,2.559,0,0,1,2.662,2.308V250.8a1.614,1.614,0,0,0,.71,1.42,11.847,11.847,0,0,1,4.615,9.407v3.55H91.535Zm28.223,28.4H87.629V268.73h23.786v8.875Z" transform="translate(447.188 19.447)" fill="#cc3253"/>
    <path id="Path_57214" data-name="Path 57214" d="M482.365,240.309l-15.62-28.045a6.1,6.1,0,0,0-7.455-2.13,5.494,5.494,0,0,0-3.018,7.1l6.39,14.2a5.908,5.908,0,0,0-5.858,5.858v12.6a15.777,15.777,0,0,0-5.325,11.715v3.55h-2.13a1.677,1.677,0,0,0-1.775,1.775v12.425a1.677,1.677,0,0,0,1.775,1.775h27.336a1.677,1.677,0,0,0,1.775-1.775V266.934a1.677,1.677,0,0,0-1.775-1.775h-1.6l7.455-14.023a10.333,10.333,0,0,0-.177-10.828Zm-7.632,37.275H451.125v-8.875h23.786v8.875Zm4.615-28.223L471,265.158H455.03v-3.55a12.4,12.4,0,0,1,4.615-9.407,2.192,2.192,0,0,0,.71-1.42v-13.49a2.56,2.56,0,0,1,2.662-2.308,2.129,2.129,0,0,1,2.13,1.775v14.023a1.775,1.775,0,0,0,3.55,0V236.758a7.429,7.429,0,0,0-.71-2.662l-8.165-18.105a1.987,1.987,0,0,1,1.242-2.485,2.408,2.408,0,0,1,3.018.71L479.7,242.26a7.269,7.269,0,0,1-.356,7.1Z" transform="translate(155.224 19.467)" fill="#cc3253"/>
    <path id="Path_57215" data-name="Path 57215" d="M313.095,113.7a9.734,9.734,0,0,0-9.763,9.763,9.852,9.852,0,1,0,19.7,0,10,10,0,0,0-9.94-9.763Zm0,16.153a6.3,6.3,0,0,1,0-12.6,6.328,6.328,0,0,1,6.39,6.212A6.6,6.6,0,0,1,313.095,129.853Z" transform="translate(269.291 95.312)" fill="#cc3253"/>
    <path id="Path_57216" data-name="Path 57216" d="M255.137,57.825l-3.55-7.1c.355-.71.533-1.242.887-1.952l7.455-2.485a1.763,1.763,0,0,0,1.242-1.775v-8.52a2.137,2.137,0,0,0-1.242-1.775l-7.455-2.485a9.521,9.521,0,0,0-.887-1.952l3.55-7.1a1.89,1.89,0,0,0-.355-2.13l-6.036-5.858a1.887,1.887,0,0,0-2.13-.355l-7.1,3.55a8.659,8.659,0,0,0-1.952-.71l-2.485-7.455a1.555,1.555,0,0,0-1.6-1.243h-8.52a1.705,1.705,0,0,0-1.6,1.242l-2.485,7.455c-.71.177-1.242.533-1.952.71l-7.1-3.55a1.89,1.89,0,0,0-2.13.355L203.661,20.9a1.887,1.887,0,0,0-.355,2.13l3.55,7.1c-.355.71-.533,1.242-.887,1.952l-7.455,2.485a1.7,1.7,0,0,0-1.242,1.6v8.52a1.705,1.705,0,0,0,1.242,1.6l7.455,2.485a9.519,9.519,0,0,0,.887,1.952l-3.55,7.1a1.89,1.89,0,0,0,.355,2.13l6.035,6.035a1.887,1.887,0,0,0,2.13.355l7.1-3.55c.71.355,1.242.533,1.952.887l2.485,7.455a1.7,1.7,0,0,0,1.6,1.242h8.52a1.705,1.705,0,0,0,1.6-1.242l2.485-7.455c.71-.177,1.242-.533,1.952-.71l7.1,3.55a1.89,1.89,0,0,0,2.13-.355l6.035-6.035a2.23,2.23,0,0,0,.356-2.307Zm-7.988,4.793L240.4,59.245a2.465,2.465,0,0,0-1.6,0c-1.065.533-2.13.887-3.018,1.242a1.6,1.6,0,0,0-1.065,1.065l-2.308,7.1h-6.035l-2.308-7.1a1.6,1.6,0,0,0-1.065-1.065,15.372,15.372,0,0,1-3.018-1.242,2.465,2.465,0,0,0-1.6,0l-6.745,3.372-4.26-4.26,3.372-6.745a2.465,2.465,0,0,0,0-1.6c-.533-1.065-.887-2.13-1.242-3.018a1.6,1.6,0,0,0-1.065-1.065l-7.1-2.308V37.59l7.1-2.308a1.6,1.6,0,0,0,1.065-1.065,15.371,15.371,0,0,1,1.242-3.018,2.465,2.465,0,0,0,0-1.6l-3.372-6.745,4.26-4.26,6.745,3.372a2.465,2.465,0,0,0,1.6,0c1.065-.533,2.13-.887,3.018-1.242.178-.533.71-1.066.888-1.6l2.308-7.1h6.035l2.307,7.1a1.6,1.6,0,0,0,1.065,1.065,15.372,15.372,0,0,1,3.018,1.242,2.465,2.465,0,0,0,1.6,0l6.745-3.372,4.26,4.26-3.372,6.745a2.465,2.465,0,0,0,0,1.6c.533,1.065.887,2.13,1.242,3.018a1.6,1.6,0,0,0,1.065,1.065l7.1,2.308v6.035l-6.744,2.663a1.6,1.6,0,0,0-1.065,1.065,15.372,15.372,0,0,1-1.242,3.018,2.465,2.465,0,0,0,0,1.6l3.372,6.745Z" transform="translate(353.164 178.521)" fill="#cc3253"/>
    <path id="Path_57217" data-name="Path 57217" d="M319.53,371.64a1.677,1.677,0,0,0-1.775,1.775v26.449a1.775,1.775,0,1,0,3.55,0V373.415A1.909,1.909,0,0,0,319.53,371.64Z" transform="translate(257.885 -108.668)" fill="#cc3253"/>
    <path id="Path_57218" data-name="Path 57218" d="M367.051,371.64a1.677,1.677,0,0,0-1.775,1.775v26.449a1.775,1.775,0,1,0,3.55,0V373.415A1.779,1.779,0,0,0,367.051,371.64Z" transform="translate(220.306 -108.668)" fill="#cc3253"/>
    <path id="Path_57219" data-name="Path 57219" d="M271.171,317.33A1.677,1.677,0,0,0,269.4,319.1v26.449a1.775,1.775,0,0,0,3.55,0V319.1A1.779,1.779,0,0,0,271.171,317.33Z" transform="translate(296.128 -65.719)" fill="#cc3253"/>
    <path id="Path_57220" data-name="Path 57220" d="M415.41,317.33a1.677,1.677,0,0,0-1.775,1.775v26.449a1.775,1.775,0,0,0,3.55,0V319.1A1.909,1.909,0,0,0,415.41,317.33Z" transform="translate(182.063 -65.719)" fill="#cc3253"/>
  </g>
</svg>
