<svg xmlns="http://www.w3.org/2000/svg" width="101.016" height="101.016" viewBox="0 0 101.016 101.016">
  <g id="Group_15400" data-name="Group 15400" transform="translate(-1593.523 -389.962)">
    <path id="Path_57186" data-name="Path 57186" d="M76.732,101.012H164.28a6.734,6.734,0,0,0,6.734-6.734V6.73A6.734,6.734,0,0,0,164.28,0H76.732A6.734,6.734,0,0,0,70,6.73V94.278a6.734,6.734,0,0,0,6.734,6.734Zm87.546-3.367H76.732a3.366,3.366,0,0,1-3.367-3.367V16.832h94.28V94.278a3.366,3.366,0,0,1-3.367,3.367ZM76.732,3.365H164.28a3.366,3.366,0,0,1,3.367,3.367v6.735H73.367V6.732a3.366,3.366,0,0,1,3.367-3.367Z" transform="translate(1523.525 389.966)" fill="#cc3253"/>
    <path id="Path_57187" data-name="Path 57187" d="M452.522,466.67H439.053a5.051,5.051,0,1,0,0,10.1h13.469a5.051,5.051,0,0,0,0-10.1Zm0,6.734H439.053a1.684,1.684,0,0,1,0-3.367h13.469a1.684,1.684,0,0,1,0,3.367Z" transform="translate(1225.182 7.473)" fill="#cc3253"/>
    <path id="Path_57188" data-name="Path 57188" d="M109.018,40.7H110.7a1.684,1.684,0,0,0,0-3.367h-1.683a1.684,1.684,0,1,0,0,3.367Z" transform="translate(1492.924 359.365)" fill="#cc3253"/>
    <path id="Path_57189" data-name="Path 57189" d="M155.681,40.7h1.684a1.684,1.684,0,0,0,0-3.367h-1.684a1.684,1.684,0,0,0,0,3.367Z" transform="translate(1454.677 359.365)" fill="#cc3253"/>
    <path id="Path_57190" data-name="Path 57190" d="M202.351,40.7h1.683a1.684,1.684,0,1,0,0-3.367h-1.683a1.684,1.684,0,0,0,0,3.367Z" transform="translate(1416.426 359.365)" fill="#cc3253"/>
    <path id="Path_57191" data-name="Path 57191" d="M519.681,40.7h10.1a1.684,1.684,0,1,0,0-3.367h-10.1a1.684,1.684,0,0,0,0,3.367Z" transform="translate(1156.338 359.365)" fill="#cc3253"/>
    <path id="Path_57192" data-name="Path 57192" d="M327,204.42a1.686,1.686,0,0,1-1.3-.664,1.7,1.7,0,0,1-.291-1.47,1.689,1.689,0,0,1,3.093-.392,1.684,1.684,0,0,0,2.914-1.684,5.005,5.005,0,0,0-2.694-2.222v-.3a1.683,1.683,0,0,0-3.367,0v.325a5,5,0,0,0-3.216,3.475,5.086,5.086,0,0,0,.886,4.319,5.03,5.03,0,0,0,3.888,1.983,1.814,1.814,0,0,1,1.791,1.44,1.676,1.676,0,0,1-.4,1.347,1.749,1.749,0,0,1-2.728-.264,1.683,1.683,0,1,0-2.914,1.683,5.041,5.041,0,0,0,2.693,2.189v.34a1.684,1.684,0,0,0,3.367,0V214.2a5.021,5.021,0,0,0,2.122-1.411,5.079,5.079,0,0,0,1.2-4.019A5.185,5.185,0,0,0,327,204.421Z" transform="translate(1316.987 229.316)" fill="#cc3253"/>
    <path id="Path_57193" data-name="Path 57193" d="M205.127,150.725H176.686a15.754,15.754,0,0,0,6.554-12.671,18.782,18.782,0,0,0-7.3-14.267h.566a1.683,1.683,0,1,0,0-3.367h-4.248l1.283-3.2h0A3.8,3.8,0,0,0,170.014,112h-7.22a3.8,3.8,0,0,0-3.535,5.219l1.283,3.2H156.3a1.683,1.683,0,0,0,0,3.367h.566a18.782,18.782,0,0,0-7.3,14.267,15.754,15.754,0,0,0,6.554,12.671H127.681a1.683,1.683,0,0,0,0,3.367h77.447a1.683,1.683,0,0,0,0-3.367Zm-42.733-34.762a.434.434,0,0,1,.4-.594h7.22a.433.433,0,0,1,.4.593l-1.783,4.458h-4.455Zm-9.459,22.09c0-6.734,5.76-14.267,13.469-14.267s13.469,7.533,13.469,14.267a13.482,13.482,0,0,1-26.938,0Z" transform="translate(1477.627 298.164)" fill="#cc3253"/>
    <path id="Path_57194" data-name="Path 57194" d="M133.326,364.583l-3.86,3.861-.493-.493a1.684,1.684,0,0,0-2.381,2.38l1.683,1.683h0a1.685,1.685,0,0,0,2.381,0l5.051-5.051a1.684,1.684,0,0,0-2.381-2.381Z" transform="translate(1477.527 91.532)" fill="#cc3253"/>
    <path id="Path_57195" data-name="Path 57195" d="M133.326,411.251l-3.86,3.86-.493-.493A1.684,1.684,0,0,0,126.592,417l1.683,1.683a1.684,1.684,0,0,0,2.381,0l5.051-5.051a1.684,1.684,0,0,0-2.381-2.38Z" transform="translate(1477.527 53.283)" fill="#cc3253"/>
    <path id="Path_57196" data-name="Path 57196" d="M213.37,382.67h-1.684a1.683,1.683,0,1,0,0,3.367h1.684a1.683,1.683,0,1,0,0-3.367Z" transform="translate(1408.776 76.321)" fill="#cc3253"/>
    <path id="Path_57197" data-name="Path 57197" d="M432.935,382.67H407.681a1.683,1.683,0,0,0,0,3.367h25.254a1.683,1.683,0,1,0,0-3.367Z" transform="translate(1248.134 76.321)" fill="#cc3253"/>
    <path id="Path_57198" data-name="Path 57198" d="M258.351,386.033h20.2a1.683,1.683,0,1,0,0-3.367h-20.2a1.683,1.683,0,1,0,0,3.367Z" transform="translate(1370.527 76.324)" fill="#cc3253"/>
    <path id="Path_57199" data-name="Path 57199" d="M213.37,429.33h-1.684a1.684,1.684,0,0,0,0,3.367h1.684a1.684,1.684,0,0,0,0-3.367Z" transform="translate(1408.776 38.077)" fill="#cc3253"/>
    <path id="Path_57200" data-name="Path 57200" d="M478.834,429.33H463.681a1.684,1.684,0,0,0,0,3.367h15.152a1.684,1.684,0,1,0,0-3.367Z" transform="translate(1202.236 38.077)" fill="#cc3253"/>
    <path id="Path_57201" data-name="Path 57201" d="M290.337,431.018a1.683,1.683,0,0,0-1.683-1.684h-30.3a1.684,1.684,0,0,0,0,3.367h30.3a1.683,1.683,0,0,0,1.683-1.683Z" transform="translate(1370.529 38.074)" fill="#cc3253"/>
  </g>
</svg>
