<svg xmlns="http://www.w3.org/2000/svg" width="173.23" height="55.719" viewBox="0 0 173.23 55.719">
  <path id="Path_1" data-name="Path 1" d="M231.855,285.891H226.04v-6.823h5.815V267.03H226.04v-9.435H204.048V269.64h5.818v6.817h-5.818V288.5h5.818v7.026H191.342v-9.433h-5.808v-6.823h5.808V267.231H169.349v9.429h-5.81v12.046h5.81v6.821H151.941v-9.433h-5.806v-6.823h5.806V267.231h-5.81v-7.026h5.81V248.161H147.91v2.611h1.418v6.821H132.562v-6.821h1.417v-2.611h-4.028v9.433H124.14V269.64h5.811v7.019H124.14V288.7h5.811v6.821H111.988v-9.433h-5.813v-6.823h5.812V267.231H90v9.429H84.181v12.046H90v6.821H71.4v8.353h173.23v-8.353H231.854Zm-25.2-18.863v-6.823h16.769v6.823Zm5.818,2.612h16.767v6.817H212.477Zm-5.818,16.25v-6.823h16.77v6.823ZM226.04,288.5h3.2v6.821H212.477V288.5Zm-54.08-18.657h16.769v6.818H171.96ZM166.15,286.1v-6.823h16.771V286.1Zm5.81,2.612h16.769v6.821H171.96Zm-45.207-28.5h16.768v6.823H126.753Zm5.811,9.639H149.33v6.818H132.564ZM126.753,286.1v-6.823h16.771V286.1Zm5.811,2.612H149.33v6.821H132.564ZM92.611,269.844h16.764v6.818H92.611ZM86.792,286.1v-6.823h16.771V286.1Zm5.818,2.612h16.765v6.821H92.609Zm149.413,12.561H74.016v-3.131H242.024Z" transform="translate(-71.403 -248.161)" fill="#cc3253"/>
</svg>
